<svg width="678" height="677" xmlns="http://www.w3.org/2000/svg" xmlns:xlink="http://www.w3.org/1999/xlink" xml:space="preserve" overflow="hidden"><defs><clipPath id="clip0"><rect x="1861" y="899" width="678" height="677"/></clipPath><clipPath id="clip1"><rect x="1974" y="1012" width="452" height="451"/></clipPath><clipPath id="clip2"><rect x="1974" y="1012" width="452" height="451"/></clipPath><clipPath id="clip3"><rect x="1974" y="1012" width="452" height="451"/></clipPath></defs><g clip-path="url(#clip0)" transform="translate(-1861 -899)"><g clip-path="url(#clip1)"><g clip-path="url(#clip2)"><g clip-path="url(#clip3)"><path d="M79.6876 51.5625 191.719 51.5625 191.719 398.438 79.6876 398.438Z" transform="matrix(1 0 0 1.00222 1975 1012)"/><path d="M258.281 51.5625 370.313 51.5625 370.313 398.438 258.281 398.438Z" transform="matrix(1 0 0 1.00222 1975 1012)"/></g></g></g><path d="M1875 1237.5C1875 1058.28 2020.51 913 2200 913 2379.49 913 2525 1058.28 2525 1237.5 2525 1416.72 2379.49 1562 2200 1562 2020.51 1562 1875 1416.72 1875 1237.5Z" stroke="#000000" stroke-width="27.5" stroke-miterlimit="8" fill="none" fill-rule="evenodd"/></g></svg>